<?xml version="1.0" encoding="UTF-8"?>
<svg version="1.1" xmlns="http://www.w3.org/2000/svg" width="512" height="512">
<path d="M0 0 C63.80555881 -1.8248698 131.39781553 28.51072512 180 68 C180.48210937 67.57847656 180.96421875 67.15695313 181.4609375 66.72265625 C182.09257812 66.17480469 182.72421875 65.62695312 183.375 65.0625 C184.00148438 64.51722656 184.62796875 63.97195312 185.2734375 63.41015625 C188.28318024 60.9519727 190.8925896 60.47190686 194.79296875 60.53515625 C199.21591329 61.46671448 201.94565691 64.86034006 205 68 C205.82628906 68.8146875 206.65257812 69.629375 207.50390625 70.46875 C209.68766093 72.62858248 211.85071943 74.80594276 214 77 C217.56764285 75.48623919 219.83706287 73.39486871 222.546875 70.6484375 C223.39121094 69.79765625 224.23554688 68.946875 225.10546875 68.0703125 C226.41451172 66.73613281 226.41451172 66.73613281 227.75 65.375 C228.63816406 64.4778125 229.52632813 63.580625 230.44140625 62.65625 C232.63216969 60.44192996 234.81812763 58.22307565 237 56 C238.65 57.32 240.3 58.64 242 60 C245.84411747 58.43387807 248.15950209 55.97905879 251 53 C255.62125799 48.15331479 258.46044206 45.72738926 265.25 45.5625 C270.9792408 45.67739119 274.78664954 47.10678156 279 51 C282.1971289 55.29614196 282.34863236 59.25776526 282.3984375 64.4375 C281.41690903 70.75007525 277.74980479 74.66099184 273.3125 78.875 C272.54583008 79.62136719 272.54583008 79.62136719 271.76367188 80.3828125 C270.51591888 81.59558176 269.25890136 82.79880719 268 84 C269.20381448 86.49361571 270.45428722 88.68143083 272 91 C265.07 97.93 258.14 104.86 251 112 C252.64514743 115.29029485 253.51238227 116.75202692 256.00390625 119.1640625 C256.57947266 119.72867188 257.15503906 120.29328125 257.74804688 120.875 C258.34681641 121.4525 258.94558594 122.03 259.5625 122.625 C260.75349384 123.78160151 261.94240005 124.94035778 263.12890625 126.1015625 C263.91890015 126.86460693 263.91890015 126.86460693 264.72485352 127.64306641 C267.26097309 130.34185113 267.5 133.11664176 267.5 136.7578125 C266.52948192 141.1099795 263.13072468 143.99706 260 147 C263.1875293 151.9500455 266.52304834 156.7167383 270.125 161.375 C287.81433723 184.91156389 300.84981236 211.45159524 311 239 C311.29310059 239.77504883 311.58620117 240.55009766 311.88818359 241.34863281 C321.40390368 266.68187436 328.3787329 296.42897102 328.0625 323.625 C328.05347656 324.64851563 328.04445313 325.67203125 328.03515625 326.7265625 C328.01775391 327.85191406 328.01775391 327.85191406 328 329 C324.59994815 324.93729304 321.76930866 320.64946669 318.9375 316.1875 C303.67647059 292.41172216 286.99823107 269.58070771 268.6328125 248.10546875 C266.11661783 245.15579651 263.68107031 242.14529582 261.25 239.125 C258.2582315 235.44650883 255.16859901 232.03648135 251.75219727 228.75268555 C250.13656023 227.13659828 248.67561571 225.47559634 247.20703125 223.7265625 C241.85406719 217.5707953 236.0586419 211.83553122 230.30151367 206.0612793 C228.29989764 204.04983576 226.30919137 202.02796994 224.31835938 200.00585938 C223.04232417 198.72330384 221.76565412 197.44137953 220.48828125 196.16015625 C219.60067863 195.25403343 219.60067863 195.25403343 218.69514465 194.3296051 C218.13743881 193.77490036 217.57973297 193.22019562 217.00512695 192.64868164 C216.51994095 192.15985001 216.03475494 191.67101837 215.53486633 191.16737366 C213.69641336 189.76910104 212.28181191 189.30556293 210 189 C208.02283525 190.19613233 208.02283525 190.19613233 206.1875 191.9375 C203.3809974 194.15261388 202.08832243 194.98107377 198.5 195.75 C193.60387937 194.70083129 190.72328718 192.23128137 187 189 C184.69 187.02 182.38 185.04 180 183 C173.07 189.93 166.14 196.86 159 204 C155 202 155 202 152 200 C151.45386246 200.5472767 150.90772492 201.0945534 150.34503776 201.65841424 C117.99532587 234.07522176 85.63781431 266.48422584 53.27011864 298.88307735 C49.38599534 302.77095289 45.50193742 306.65889376 41.61791992 310.546875 C40.84466225 311.32091961 40.07140457 312.09496421 39.27471485 312.89246471 C26.74501074 325.43523217 14.22061472 337.98328714 1.69816331 350.53329508 C-11.14568487 363.40517161 -23.99519979 376.27137061 -36.85002214 389.13228762 C-44.78559282 397.07198008 -52.71667996 405.01609791 -60.64213685 412.96588625 C-66.07313055 418.41270542 -71.50960553 423.85401313 -76.95046904 429.29097317 C-80.09206161 432.43063923 -83.23113595 435.57272168 -86.36374092 438.72135735 C-89.23006904 441.60224654 -92.10319264 444.47616962 -94.98194531 447.344642 C-96.02368783 448.38511327 -97.06288121 449.42814418 -98.09928443 450.47393398 C-99.50588096 451.89252884 -100.92262073 453.30104487 -102.33986187 454.70900536 C-103.51718475 455.88803698 -103.51718475 455.88803698 -104.71829194 457.09088743 C-109.32321941 460.94384526 -113.7479724 461.44608903 -119.56640625 461.31640625 C-124.47142449 460.67867515 -127.15952482 457.9540529 -130.3125 454.375 C-132.66039396 451.07055664 -133.17700545 449.26470014 -133.25 445.25 C-133.28867188 443.98929687 -133.28867188 443.98929687 -133.328125 442.703125 C-132.64121937 437.04433098 -129.53141456 433.15655078 -125.6015749 429.23243141 C-124.69688569 428.32176906 -123.79219649 427.41110671 -122.86009246 426.47284853 C-121.8550484 425.47636239 -120.8498655 424.48001626 -119.84455872 423.48379517 C-118.77713024 422.41505799 -117.71036144 421.3456616 -116.64419574 420.27566469 C-113.71607799 417.34084267 -110.77869474 414.41545076 -107.83971179 411.49151492 C-104.67070627 408.33546624 -101.51037665 405.17075093 -98.34898376 402.00708008 C-92.8716373 396.52816066 -87.38882538 391.05476031 -81.90226173 385.58507156 C-73.96962582 377.67681803 -66.04528799 369.76029232 -58.12295016 361.84172396 C-45.26922438 348.99456386 -32.40881356 336.15411736 -19.54418945 323.31787109 C-7.04751125 310.84873044 5.44601184 298.37644243 17.93530273 285.89990234 C18.70515942 285.13083383 19.47501611 284.36176531 20.26820179 283.56939168 C24.13033185 279.71117674 27.99239995 275.85289977 31.85443723 271.99459195 C63.893356 239.98677269 95.94312893 207.98983875 128 176 C126.02 173.525 126.02 173.525 124 171 C125.51376081 167.43235715 127.60513129 165.16293713 130.3515625 162.453125 C131.62773438 161.18662109 131.62773438 161.18662109 132.9296875 159.89453125 C133.81914062 159.02183594 134.70859375 158.14914063 135.625 157.25 C136.5221875 156.36183594 137.419375 155.47367188 138.34375 154.55859375 C140.55807004 152.36783031 142.77692435 150.18187237 145 148 C144.60603027 147.54109375 144.21206055 147.0821875 143.80615234 146.609375 C142.71984669 145.34318218 141.63443226 144.07622433 140.54980469 142.80859375 C139.40498583 141.47261107 138.25474508 140.14127006 137.1015625 138.8125 C134.54515236 135.67447273 133.10956957 133.51132467 132.25 129.5 C133.16047939 125.25109617 134.95771184 123.12529532 137.8828125 119.9921875 C139.26059713 118.05265562 139.26059713 118.05265562 138.52929688 115.85546875 C136.27247038 111.64157304 133.03947729 108.65224017 129.6484375 105.3203125 C128.54914413 104.22382889 128.54914413 104.22382889 127.42764282 103.10519409 C125.87599473 101.5602614 124.32075645 100.0189273 122.76220703 98.48095703 C120.39756769 96.14727227 118.04357341 93.80327977 115.69140625 91.45703125 C114.17769982 89.9525045 112.6633955 88.448579 111.1484375 86.9453125 C110.4522934 86.25341827 109.75614929 85.56152405 109.03890991 84.84866333 C105.04766291 80.91433953 100.96065072 77.13960141 96.71568298 73.4800415 C94.50131589 71.56980795 92.34583817 69.59812176 90.1875 67.625 C84.93824117 62.89428498 79.50441004 58.42916306 74 54 C72.87864698 53.08625558 71.75756489 52.17217861 70.63671875 51.2578125 C52.08887756 36.19244382 32.51944934 22.60801177 12.60546875 9.421875 C11.76443604 8.8645166 10.92340332 8.3071582 10.05688477 7.73291016 C8.46739086 6.6819708 6.87552242 5.63461169 5.28100586 4.59130859 C3.5038225 3.41936367 1.74904696 2.21353629 0 1 C0 0.67 0 0.34 0 0 Z " fill="#315795" transform="translate(160,24)"/>
<path d="M0 0 C1.11829227 0.95248515 2.23572573 1.90597867 3.35279846 2.8598938 C4.28634328 3.65619548 4.28634328 3.65619548 5.2387476 4.46858406 C7.38171525 6.33190292 9.40232519 8.28916492 11.40234375 10.3046875 C12.51899414 11.42617187 12.51899414 11.42617187 13.65820312 12.5703125 C14.41037109 13.33085937 15.16253906 14.09140625 15.9375 14.875 C16.71673828 15.65875 17.49597656 16.4425 18.29882812 17.25 C20.20154085 19.16438581 22.10186171 21.08108034 24 23 C18.89447837 29.17076966 13.33180775 34.81423733 7.66929626 40.47114563 C6.61977501 41.52325438 5.57046736 42.57557625 4.52135378 43.62809151 C1.65080926 46.50666312 -1.22282751 49.38212996 -4.09701788 52.25706065 C-7.20104849 55.36294913 -10.30222954 58.47168078 -13.40382385 61.58000183 C-20.17767427 68.36740168 -26.95527181 75.15105145 -33.73369527 81.93388391 C-37.96593172 86.16888636 -42.1974317 90.40462414 -46.42880058 94.64049339 C-58.14615054 106.3700275 -69.86444029 118.0986209 -81.58619022 129.82375813 C-82.71014731 130.94804456 -82.71014731 130.94804456 -83.8568106 132.09504385 C-84.60788149 132.84633302 -85.35895238 133.59762219 -86.132783 134.3716777 C-87.65468565 135.89402382 -89.17658676 137.41637149 -90.69848633 138.9387207 C-91.45339792 139.69385372 -92.20830951 140.44898674 -92.98609721 141.22700258 C-105.23541727 153.48027607 -117.47796201 165.74029522 -129.7176227 178.0032166 C-142.28586285 190.5951491 -154.85970052 203.18146917 -167.43920892 215.76214474 C-174.50148432 222.82533765 -181.56131296 229.89093859 -188.61497688 236.96273232 C-194.61658254 242.97970979 -200.62326546 248.99155931 -206.63669927 254.9967166 C-209.70540855 258.06151014 -212.77161679 261.12870252 -215.83136749 264.20244217 C-218.63083813 267.01459498 -221.43710533 269.81977162 -224.24900799 272.61949196 C-225.2663407 273.63485789 -226.28112971 274.65278002 -227.29313124 275.67345957 C-228.6667318 277.05809275 -230.05047149 278.43264569 -231.4347086 279.80664539 C-232.58436961 280.95720204 -232.58436961 280.95720204 -233.75725609 282.13100225 C-238.34433371 285.95365794 -242.78159521 286.44533963 -248.56640625 286.31640625 C-253.47142449 285.67867515 -256.15952482 282.9540529 -259.3125 279.375 C-261.66039396 276.07055664 -262.17700545 274.26470014 -262.25 270.25 C-262.28867187 268.98929687 -262.28867187 268.98929687 -262.328125 267.703125 C-261.64011446 262.03522866 -258.52163334 258.14678322 -254.58595753 254.21681404 C-253.22369863 252.84559542 -253.22369863 252.84559542 -251.83391935 251.44667542 C-250.82494503 250.44625903 -249.81583188 249.44598265 -248.80659485 248.4458313 C-247.73504157 247.37296933 -246.66414797 246.29944815 -245.59385747 245.22532642 C-242.65433836 242.27910286 -239.70555312 239.34230938 -236.7551688 236.40697193 C-233.57389335 233.23865307 -230.40129352 230.06166782 -227.22763062 226.88572693 C-221.72900328 221.38552662 -216.22491029 215.89084537 -210.71706581 210.39987564 C-202.75366092 202.46085291 -194.79855386 194.51355817 -186.84544697 186.56422077 C-173.9418069 173.66714641 -161.0314817 160.77678564 -148.11694336 147.890625 C-135.57176259 135.3729817 -123.02973686 122.85219109 -110.49194336 110.32714844 C-109.71909968 109.55509292 -108.94625599 108.78303741 -108.1499928 107.98758627 C-104.27287867 104.11438726 -100.3958265 100.24112622 -96.51880515 96.36783433 C-64.35547223 64.23560104 -32.18128511 32.11425299 0 0 Z " fill="#BA8531" transform="translate(289,199)"/>
<path d="M0 0 C42.8480476 41.48538884 68.50826872 114.9849505 70.09765625 173.6015625 C70.08605469 174.59929687 70.07445312 175.59703125 70.0625 176.625 C70.05347656 177.64851562 70.04445313 178.67203125 70.03515625 179.7265625 C70.02355469 180.47679687 70.01195312 181.22703125 70 182 C66.59994815 177.93729304 63.76930866 173.64946669 60.9375 169.1875 C45.67647059 145.41172216 28.99823107 122.58070771 10.6328125 101.10546875 C8.11661783 98.15579651 5.68107031 95.14529582 3.25 92.125 C0.25826237 88.44654679 -2.83088964 85.03617372 -6.24804688 81.75317383 C-7.86479467 80.13529954 -9.32192724 78.47158794 -10.7890625 76.71875 C-16.74324916 69.86663485 -23.3141639 63.58162672 -29.75 57.1875 C-31.09007753 55.85244816 -32.42992318 54.51716353 -33.76953125 53.18164062 C-36.70601886 50.25490642 -39.64468852 47.3303845 -42.58538818 44.40788269 C-44.05931489 42.94096726 -45.53012784 41.4709772 -47 40 C-40.4944361 33.92586966 -33.92613747 28.03553898 -26.98828125 22.453125 C-23.38739638 19.49710448 -19.88216669 16.44104925 -16.375 13.375 C-11.05363289 8.72837096 -5.6676664 4.22387062 0 0 Z " fill="#E75556" transform="translate(418,171)"/>
<path d="M0 0 C62.35169374 -1.78328856 133.38977418 27.55239249 180 68 C180.33 68.66 180.66 69.32 181 70 C175.63232913 76.64181496 170.16499124 83.1825038 164.59375 89.65356445 C161.12184057 93.68668513 157.67832754 97.74229837 154.25 101.8125 C149.91740819 106.95119152 145.50140301 112.00847288 141 117 C137.52960561 113.53335109 134.06705576 110.05900562 130.60734558 106.58169556 C127.72779595 103.6886821 124.84552498 100.79838611 121.96313477 97.90820312 C120.45051164 96.39054928 118.93878699 94.87199938 117.42797852 93.35253906 C115.22913472 91.14146481 113.02698763 88.93372562 110.82421875 86.7265625 C110.15935959 86.05654205 109.49450043 85.38652161 108.80949402 84.69619751 C104.9115042 80.79775047 100.90457993 77.08555946 96.7270813 73.48773193 C94.50785044 71.5760555 92.34924782 69.60123881 90.1875 67.625 C84.93824117 62.89428498 79.50441004 58.42916306 74 54 C72.87864698 53.08625558 71.75756489 52.17217861 70.63671875 51.2578125 C52.08887756 36.19244382 32.51944934 22.60801177 12.60546875 9.421875 C11.76443604 8.8645166 10.92340332 8.3071582 10.05688477 7.73291016 C8.46739086 6.6819708 6.87552242 5.63461169 5.28100586 4.59130859 C3.5038225 3.41936367 1.74904696 2.21353629 0 1 C0 0.67 0 0.34 0 0 Z " fill="#E75555" transform="translate(160,24)"/>
<path d="M0 0 C4.43604733 2.55483467 7.0936898 5.06913653 8.609375 10.08984375 C9.32151128 16.32612291 8.89121344 20.61778051 5.609375 26.08984375 C3.83501793 28.18298822 1.91038425 30.07640142 -0.078125 31.96484375 C-0.84479492 32.71121094 -0.84479492 32.71121094 -1.62695312 33.47265625 C-2.87470612 34.68542551 -4.13172364 35.88865094 -5.390625 37.08984375 C-4.18681052 39.58345946 -2.93633778 41.77127458 -1.390625 44.08984375 C-8.650625 51.34984375 -15.910625 58.60984375 -23.390625 66.08984375 C-26.69518614 64.43756318 -28.22335311 63.50438836 -30.69042969 61.01708984 C-31.31077087 60.3965976 -31.93111206 59.77610535 -32.57025146 59.1368103 C-33.22769348 58.46904572 -33.8851355 57.80128113 -34.5625 57.11328125 C-35.5861264 56.08541 -35.5861264 56.08541 -36.63043213 55.03677368 C-38.80524098 52.8507853 -40.97298572 50.65793946 -43.140625 48.46484375 C-44.6154249 46.9800112 -46.09068006 45.49563069 -47.56640625 44.01171875 C-51.17977948 40.37631465 -54.78683353 36.73474551 -58.390625 33.08984375 C-56.69208463 29.46901247 -54.67957718 27.14729021 -51.8203125 24.32421875 C-50.92441406 23.43476562 -50.02851563 22.5453125 -49.10546875 21.62890625 C-48.16832031 20.70851563 -47.23117187 19.788125 -46.265625 18.83984375 C-45.31073863 17.89499519 -44.35630641 16.94968742 -43.40234375 16.00390625 C-41.06953413 13.69466037 -38.73218414 11.39021172 -36.390625 9.08984375 C-34.740625 10.40984375 -33.090625 11.72984375 -31.390625 13.08984375 C-27.54650753 11.52372182 -25.23112291 9.06890254 -22.390625 6.08984375 C-15.96044751 -0.65400093 -9.27919066 -3.53276376 0 0 Z " fill="#4F8DF1" transform="translate(433.390625,70.91015625)"/>
<path d="M0 0 C4.83298806 4.02748053 9.38110004 8.24379413 13.80859375 12.7109375 C14.72597069 13.63043686 14.72597069 13.63043686 15.66188049 14.56851196 C17.58947559 16.50164564 19.51353928 18.43824987 21.4375 20.375 C22.75432404 21.69684699 24.07137926 23.01846372 25.38867188 24.33984375 C28.59512373 27.55724299 31.79841629 30.77775681 35 34 C31.7498913 37.8488174 28.49349707 41.63349881 24.9140625 45.18359375 C23.86025391 46.23256836 23.86025391 46.23256836 22.78515625 47.30273438 C22.07230469 48.00720703 21.35945313 48.71167969 20.625 49.4375 C19.52091797 50.53481445 19.52091797 50.53481445 18.39453125 51.65429688 C16.59863926 53.43852723 14.80044015 55.22036124 13 57 C9.10366313 55.20610641 6.97328967 52.98787336 4.125 49.75 C-0.22447467 44.8856436 -4.70014527 40.1785397 -9.3125 35.5625 C-9.88661621 34.9840332 -10.46073242 34.40556641 -11.05224609 33.80957031 C-14.54930682 30.32364995 -18.16164676 27.1066853 -22 24 C-20.4608199 20.33247995 -18.24514548 18.01419427 -15.4296875 15.234375 C-14.08583984 13.90019531 -14.08583984 13.90019531 -12.71484375 12.5390625 C-11.77769531 11.61867187 -10.84054687 10.69828125 -9.875 9.75 C-8.92011363 8.80515144 -7.96568141 7.85984367 -7.01171875 6.9140625 C-4.67890913 4.60481662 -2.34155914 2.30036797 0 0 Z " fill="#508DF1" transform="translate(306,171)"/>
<path d="M0 0 C4.43604733 2.55483467 7.0936898 5.06913653 8.609375 10.08984375 C9.32095475 16.32124927 8.90596911 20.63007573 5.609375 26.08984375 C3.67193167 28.35157425 1.57545117 30.41019511 -0.578125 32.46484375 C-1.13693359 33.01011719 -1.69574219 33.55539063 -2.27148438 34.1171875 C-3.63774052 35.44841144 -5.01325057 36.77012685 -6.390625 38.08984375 C-10.05814505 36.55066365 -12.37643073 34.33498923 -15.15625 31.51953125 C-16.04570312 30.62363281 -16.93515625 29.72773437 -17.8515625 28.8046875 C-18.77195312 27.86753906 -19.69234375 26.93039063 -20.640625 25.96484375 C-21.58547356 25.00995738 -22.53078133 24.05552516 -23.4765625 23.1015625 C-25.78580838 20.76875288 -28.09025703 18.43140289 -30.390625 16.08984375 C-28.58250234 12.18041755 -26.05807219 9.4592523 -23.015625 6.46484375 C-22.53351563 5.975 -22.05140625 5.48515625 -21.5546875 4.98046875 C-15.39407589 -1.14666128 -8.44848694 -3.21649911 0 0 Z " fill="#BA8533" transform="translate(433.390625,70.91015625)"/>
</svg>
